<svg width="282" height="119" viewBox="0 0 282 119" fill="none" xmlns="http://www.w3.org/2000/svg">
<g clip-path="url(#clip0_1652_42080)">
<path d="M15.4813 83.3131C42.7096 78.8935 69.0613 79.0653 94.87 72.7176C94.6033 70.1117 92.7646 69.2335 91.0211 68.4317C82.7231 64.6326 73.9487 61.6258 66.2318 56.8912C60.7156 53.5026 53.8181 53.8749 48.9783 49.0162C45.5867 45.6085 42.6048 42.5062 41.471 37.5235C40.2706 32.1876 43.1669 28.9231 46.7014 27.0903C58.4101 21.029 70.4237 15.5594 83.6377 13.2876C90.459 12.1135 91.6308 13.0203 91.0592 19.8167C90.8592 22.1553 89.8302 24.0549 88.5155 25.7826C87.4771 27.1476 86.572 29.7249 84.5046 28.8753C82.5135 28.0544 81.1797 25.9162 82.3991 23.3676C83.6472 20.7522 81.6846 20.8762 80.2841 21.2008C70.3379 23.4631 60.8014 26.9758 51.8365 31.739C47.435 34.0776 47.635 39.9767 51.7412 43.289C57.8099 48.2049 65.3648 50.3335 72.2148 53.7794C81.0368 58.2276 91.6499 59.1631 98.6237 67.2576C99.0333 67.7349 99.9765 67.7635 100.682 67.964C103.263 68.6894 106.655 70.6176 105.769 72.5744C104.664 75.0085 103.683 78.2635 100.043 79.5617C85.0381 84.9072 69.2042 84.6303 53.7609 86.9308C38.6034 89.1835 23.2935 89.6894 8.06929 91.1403C4.45855 91.484 1.38132 91.0162 0.361924 87.6467C-0.705103 84.1053 0.428614 81.2321 4.8301 79.7144C9.09821 78.2444 13.5664 76.6981 17.1009 73.5194C18.006 72.7081 19.2921 71.7153 20.5211 72.9562C21.8263 74.2735 20.3592 75.314 19.778 76.3449C18.7967 78.0917 17.6821 79.7621 15.4623 83.3226" fill="white"/>
<path d="M282.171 71.1617C281.952 73.2044 280.742 74.3498 279.313 74.3976C270.586 74.6935 262.241 77.223 253.714 78.6739C249.789 79.3421 247.798 78.0917 246.759 74.5312C245.835 71.3621 244.921 68.2026 243.892 65.0621C242.777 61.6639 241.053 60.948 238.499 63.9548C235.279 67.7539 231.726 71.3717 230.392 76.3353C229.792 78.5689 228.315 79.848 226.543 80.7739C223.723 82.2439 221.56 82.7212 220.855 78.168C220.093 73.2617 221.446 68.4603 221.275 62.9144C219.331 64.1553 218.169 65.5107 216.93 65.5967C209.271 66.1407 208.813 71.8298 208.613 77.2803C208.47 81.2035 206.041 83.0076 203.183 82.683C200.506 82.3776 200.715 78.8935 200.925 76.6598C201.315 72.5076 203.802 68.508 199.381 64.5562C198.086 63.4012 197.266 58.953 201.839 57.5976C206.708 56.1562 204.669 51.2498 205.26 48.1285C207.565 35.853 208.909 23.4057 210.823 11.0635C211.185 8.70574 211.547 5.29802 215.358 6.09983C218.969 6.85393 218.007 9.50756 217.578 12.2471C215.568 25.1048 213.767 37.9912 212.1 50.8967C211.833 52.9203 210.185 55.8985 213.815 56.8817C217.207 57.798 222.827 54.7244 223.418 51.8321C226.391 37.2276 228.963 22.5562 230.497 7.71302C230.63 6.42438 230.725 5.1262 230.973 3.8662C231.373 1.80438 232.021 -0.534256 234.689 0.0957443C236.775 0.582563 237.661 2.54893 237.632 4.86847C237.461 19.0817 234.66 32.9607 231.935 46.8207C231.221 50.4576 230.821 53.9417 231.383 57.7598C232.002 57.483 232.526 57.3398 232.945 57.0535C242.872 50.1903 246.331 51.2021 250.97 62.3894C251.39 63.4012 251.713 64.4703 252.047 65.5203C253.638 70.5985 256.448 73.023 262.336 71.868C268.805 70.608 275.483 70.5126 282.19 71.1617" fill="white"/>
<path d="M120.059 65.148C122.089 63.2771 124.166 61.2725 126.328 59.3634C130.063 56.0703 132.33 56.4044 134.988 60.633C135.77 61.8739 136.417 63.2198 137.008 64.5753C138.409 67.7921 139.904 68.1834 142.734 65.6539C150.174 59.0103 155.814 59.9648 161.245 68.403C162.531 70.4075 163.465 72.708 165.027 74.4548C168.057 77.8339 164.713 79.533 163.055 80.7548C160.616 82.5589 159.111 80.4493 158.282 78.1203C158.158 77.7766 158.006 77.433 157.834 77.1084C153.509 68.403 152.423 68.0784 145.449 74.7507C143.563 76.5548 141.162 77.6812 139.638 80.1534C138.208 82.4921 136.503 80.6689 135.674 78.7693C134.569 76.2589 133.578 73.7007 132.454 71.1998C130.949 67.8398 128.967 67.7634 126.709 70.5221C124.613 73.0898 122.508 75.6671 120.488 78.2921C118.869 80.3921 116.525 80.3157 114.477 79.8766C112.266 79.3993 111.399 77.0225 111.333 75.123C111.037 66.8375 111.095 58.5425 110.952 50.2571C110.923 48.4053 111.914 47.4698 113.486 47.1644C116.125 46.6489 117.392 48.5866 117.754 50.5625C118.478 54.5239 118.688 58.5807 119.154 62.5898C119.25 63.4394 118.678 64.4989 120.069 65.1575" fill="white"/>
<path d="M180.194 72.4884C182.204 67.2002 187.673 51.8416 188.683 47.6129C189.35 44.8257 189.874 42.8879 193.122 43.7757C196.2 44.6157 197.143 46.8875 196.304 49.8179C194.99 54.4284 190.074 70.3502 188.635 74.9225C187.197 79.4948 184.739 87.9234 182.9 92.3429C180.785 97.4307 178.251 98.137 174.145 95.2448C172.106 93.8129 169.067 92.5338 174.192 90.5198C174.964 90.2143 175.497 89.7848 175.85 89.2788C176.012 89.0402 177.365 85.012 177.45 84.7352C177.927 83.2079 177.231 81.232 176.183 79.6093C173.687 75.7338 161.474 56.8529 159.406 52.777C158.311 50.6198 155.081 47.2788 159.197 45.2457C162.331 43.6898 164.579 45.8757 165.98 49.0543C167.066 51.5361 178.013 69.0234 180.194 72.4979" fill="#D9B49B"/>
<path d="M105.807 106.967V119.395H104.149V106.967H99.043V105.296H110.971V106.967H105.807Z" fill="#D9B49B"/>
<path d="M124.89 119.385L121.87 113.228H116.439V119.385H114.753V105.287H125.052L126.671 106.967V111.52L125.004 113.228H123.708L126.767 119.385H124.909H124.89ZM125.042 107.625L124.347 106.986H116.439V111.558H124.328L125.042 110.823V107.625Z" fill="#D9B49B"/>
<path d="M132.616 105.296H130.958V119.395H132.616V105.296Z" fill="#D9B49B"/>
<path d="M148.841 119.395H138.151V105.296H148.126L149.803 106.881V111.043L149.165 111.797L150.499 113.057V117.858L148.841 119.405V119.395ZM148.145 107.54L147.545 106.995H139.79V111.329H147.326L148.155 110.518V107.54H148.145ZM148.803 113.773L147.993 113.019H139.781V117.725H148.117L148.793 117.161V113.773H148.803Z" fill="#D9B49B"/>
<path d="M154.567 119.395V105.296H166.161V106.929H156.234V111.262H161.426V112.933H156.234V117.677H166.571V119.395H154.567Z" fill="#D9B49B"/>
<path d="M171.267 119.395L169.61 117.658V107.043L171.191 105.296H181.49V106.967H171.925L171.248 107.74V117.075L171.849 117.715H181.49V119.395H171.267Z" fill="#D9B49B"/>
<path d="M196.209 119.395L193.951 114.575H187.168L184.872 119.395H183.033L189.74 105.296H191.407L198.076 119.395H196.2H196.209ZM190.569 107.444L187.997 112.904H193.16L190.569 107.444Z" fill="#D9B49B"/>
</g>
<defs>
<clipPath id="clip0_1652_42080">
<rect width="282" height="119" fill="white"/>
</clipPath>
</defs>
</svg>
